<svg width="538" height="538" viewBox="0 0 538 538" fill="none" xmlns="http://www.w3.org/2000/svg">
<path d="M172.114 101.04L366.293 101.04L463.382 269.203L366.293 437.367L172.114 437.367L75.0248 269.203L172.114 101.04Z" fill="#000A12" stroke="white" stroke-width="4"/>
<path d="M185.637 172.814L189.445 183.946C181.698 186.355 176.359 190.685 173.43 196.935C170.5 203.12 169.035 210.216 169.035 218.224V238.439C169.035 244.949 167.701 250.873 165.031 256.212C162.427 261.485 158.261 265.685 152.531 268.81C146.867 271.935 139.413 273.497 130.168 273.497V261.583C137.525 261.583 142.798 259.5 145.988 255.333C149.244 251.166 150.871 245.535 150.871 238.439V218.224C150.871 211.388 151.913 205.008 153.996 199.083C156.145 193.094 159.725 187.853 164.738 183.36C169.817 178.803 176.783 175.288 185.637 172.814ZM189.445 353.282L185.637 364.513C176.783 361.974 169.817 358.458 164.738 353.966C159.725 349.474 156.145 344.233 153.996 338.243C151.913 332.319 150.871 325.939 150.871 319.103V298.985C150.871 294.233 150.155 290.131 148.723 286.681C147.29 283.23 145.044 280.561 141.984 278.673C138.99 276.72 135.051 275.743 130.168 275.743V263.829C139.413 263.829 146.867 265.392 152.531 268.517C158.261 271.642 162.427 275.873 165.031 281.212C167.701 286.485 169.035 292.41 169.035 298.985V319.103C169.035 324.441 169.654 329.389 170.891 333.946C172.193 338.504 174.309 342.443 177.238 345.763C180.233 349.148 184.302 351.655 189.445 353.282ZM342.473 183.946L346.281 172.814C355.201 175.288 362.167 178.803 367.18 183.36C372.258 187.853 375.839 193.094 377.922 199.083C380.005 205.008 381.047 211.388 381.047 218.224V238.439C381.047 243.126 381.763 247.228 383.195 250.743C384.628 254.194 386.841 256.863 389.836 258.751C392.896 260.639 396.867 261.583 401.75 261.583V272.618C392.57 272.618 385.116 271.153 379.387 268.224C373.658 265.229 369.458 261.16 366.789 256.017C364.185 250.808 362.883 244.949 362.883 238.439V218.224C362.883 212.885 362.264 207.937 361.027 203.38C359.79 198.758 357.675 194.786 354.68 191.466C351.75 188.081 347.681 185.574 342.473 183.946ZM346.281 364.513L342.473 353.282C347.616 351.655 351.652 349.148 354.582 345.763C357.577 342.443 359.693 338.504 360.93 333.946C362.232 329.389 362.883 324.441 362.883 319.103V298.985C362.883 292.41 364.185 286.551 366.789 281.407C369.458 276.264 373.658 272.228 379.387 269.298C385.116 266.303 392.57 264.806 401.75 264.806V275.743C394.458 275.743 389.185 277.859 385.93 282.091C382.675 286.258 381.047 291.889 381.047 298.985V319.103C381.047 325.939 380.005 332.319 377.922 338.243C375.839 344.233 372.258 349.474 367.18 353.966C362.167 358.458 355.201 361.974 346.281 364.513Z" fill="white"/>
<path d="M216.237 296.853C221.62 301.201 228.888 304.471 237.001 306.656C245.181 308.858 254.324 309.986 263.541 309.986C272.758 309.986 281.901 308.858 290.081 306.656C298.194 304.471 305.462 301.201 310.845 296.853" stroke="#4F5B62" stroke-width="15" stroke-linecap="round"/>
<ellipse cx="226.656" cy="233.679" rx="12.2951" ry="11.4679" fill="#4F5B62" stroke="#4F5B62" stroke-width="15" stroke-linecap="round"/>
<ellipse cx="300.426" cy="233.679" rx="12.2951" ry="11.4679" fill="#4F5B62" stroke="#4F5B62" stroke-width="15" stroke-linecap="round"/>
</svg>
