<svg width="400" height="400" viewBox="0 0 400 400" fill="none" xmlns="http://www.w3.org/2000/svg">
<circle cx="200" cy="200" r="200" fill="#000A12"/>
<path d="M116.637 103.814L120.445 114.946C112.698 117.355 107.359 121.685 104.43 127.935C101.5 134.12 100.035 141.216 100.035 149.224V169.439C100.035 175.949 98.7006 181.873 96.0314 187.212C93.4272 192.485 89.2605 196.685 83.5314 199.81C77.8673 202.935 70.4129 204.497 61.1681 204.497V192.583C68.5249 192.583 73.7983 190.5 76.9884 186.333C80.2436 182.166 81.8712 176.535 81.8712 169.439V149.224C81.8712 142.388 82.9129 136.008 84.9962 130.083C87.1447 124.094 90.7254 118.853 95.7384 114.36C100.817 109.803 107.783 106.288 116.637 103.814ZM120.445 284.282L116.637 295.513C107.783 292.974 100.817 289.458 95.7384 284.966C90.7254 280.474 87.1447 275.233 84.9962 269.243C82.9129 263.319 81.8712 256.939 81.8712 250.103V229.985C81.8712 225.233 81.1551 221.131 79.7228 217.681C78.2905 214.23 76.0444 211.561 72.9845 209.673C69.9897 207.72 66.0509 206.743 61.1681 206.743V194.829C70.4129 194.829 77.8673 196.392 83.5314 199.517C89.2605 202.642 93.4272 206.873 96.0314 212.212C98.7006 217.485 100.035 223.41 100.035 229.985V250.103C100.035 255.441 100.654 260.389 101.891 264.946C103.193 269.504 105.309 273.443 108.238 276.763C111.233 280.148 115.302 282.655 120.445 284.282ZM273.473 114.946L277.281 103.814C286.201 106.288 293.167 109.803 298.18 114.36C303.258 118.853 306.839 124.094 308.922 130.083C311.005 136.008 312.047 142.388 312.047 149.224V169.439C312.047 174.126 312.763 178.228 314.195 181.743C315.628 185.194 317.841 187.863 320.836 189.751C323.896 191.639 327.867 192.583 332.75 192.583V203.618C323.57 203.618 316.116 202.153 310.387 199.224C304.658 196.229 300.458 192.16 297.789 187.017C295.185 181.808 293.883 175.949 293.883 169.439V149.224C293.883 143.885 293.264 138.937 292.027 134.38C290.79 129.758 288.675 125.786 285.68 122.466C282.75 119.081 278.681 116.574 273.473 114.946ZM277.281 295.513L273.473 284.282C278.616 282.655 282.652 280.148 285.582 276.763C288.577 273.443 290.693 269.504 291.93 264.946C293.232 260.389 293.883 255.441 293.883 250.103V229.985C293.883 223.41 295.185 217.551 297.789 212.407C300.458 207.264 304.658 203.228 310.387 200.298C316.116 197.303 323.57 195.806 332.75 195.806V206.743C325.458 206.743 320.185 208.859 316.93 213.091C313.675 217.258 312.047 222.889 312.047 229.985V250.103C312.047 256.939 311.005 263.319 308.922 269.243C306.839 275.233 303.258 280.474 298.18 284.966C293.167 289.458 286.201 292.974 277.281 295.513Z" fill="#4F5B62"/>
<path d="M147.237 227.853C152.62 232.201 159.888 235.471 168.001 237.655C176.181 239.858 185.324 240.986 194.541 240.986C203.758 240.986 212.901 239.858 221.081 237.655C229.194 235.471 236.462 232.201 241.845 227.853" stroke="white" stroke-width="15" stroke-linecap="round"/>
<ellipse cx="157.656" cy="164.679" rx="12.2951" ry="11.4679" fill="white" stroke="white" stroke-width="15" stroke-linecap="round"/>
<ellipse cx="231.426" cy="164.679" rx="12.2951" ry="11.4679" fill="white" stroke="white" stroke-width="15" stroke-linecap="round"/>
</svg>
